<svg width="186" height="247" viewBox="0 0 186 247" fill="none" xmlns="http://www.w3.org/2000/svg">
<g style="mix-blend-mode:multiply">
<g clip-path="url(#clip0_119_9551)">
<path d="M37.0898 68.0071C37.0898 68.0071 78.1784 115.35 88.2287 142.847C98.2789 170.344 115.475 229.763 115.475 229.763" stroke="#C5BD9D" stroke-width="2" stroke-miterlimit="10" stroke-linecap="round"/>
<path d="M80.8616 73.7066C80.8616 73.7066 86.0321 129.401 93.8482 159.173" stroke="#C5BD9D" stroke-width="2" stroke-miterlimit="10"/>
<path d="M57.8848 142.083C57.8848 142.083 93.24 166.29 102.248 185.151" stroke="#C5BD9D" stroke-width="2" stroke-miterlimit="10"/>
<path d="M125.545 100.41C125.556 100.272 125.735 100.227 125.797 100.348C127.652 104.062 141.016 131.706 134.517 144.39C127.541 158.002 112.585 161.64 111.275 176.834C109.965 192.028 109.525 204.924 109.525 204.924C109.525 204.924 96.6217 172.777 104.815 156.794C107.272 151.999 109.85 148.03 112.258 144.815C119.151 135.616 123.382 124.722 124.399 113.27L125.544 100.407L125.545 100.41Z" stroke="#C5BD9D" stroke-width="2" stroke-miterlimit="10"/>
<path d="M103.908 103.931C99.0458 96.5765 82.3593 100.851 86.2777 118.889C88.8603 130.774 110.001 113.147 103.908 103.931Z" stroke="#C5BD9D" stroke-width="2" stroke-miterlimit="10"/>
<path d="M9.0307 32.0345C27.61 16.2193 39.3304 70.6309 39.3304 70.6309C39.3304 70.6309 -9.54856 47.8497 9.0307 32.0345Z" stroke="#C5BD9D" stroke-width="2" stroke-miterlimit="10"/>
<path d="M62.2181 40.6136C34.9105 36.5705 51.9088 76.415 53.4296 86.6577C53.5391 87.3849 56.0366 91.6866 56.3439 91.019C60.512 81.9395 85.3329 44.0364 62.2181 40.6136Z" stroke="#C5BD9D" stroke-width="2" stroke-miterlimit="10"/>
<path d="M24.6104 88.8856C33.3249 69.2901 64.9544 104.448 64.9544 104.448C64.9544 104.448 15.8969 108.484 24.6104 88.8856V88.8856Z" stroke="#C5BD9D" stroke-width="2" stroke-miterlimit="10"/>
<path d="M37.1369 120.858C24.9338 131.966 58.6511 142.477 58.6511 142.477C58.6511 142.477 48.4947 110.522 37.1369 120.858V120.858Z" stroke="#C5BD9D" stroke-width="2" stroke-miterlimit="10"/>
<path d="M72.7419 131.392C55.9074 133.526 79.9575 158.77 79.9575 158.77C79.9575 158.77 80.0132 130.471 72.7419 131.392Z" stroke="#C5BD9D" stroke-width="2" stroke-miterlimit="10"/>
<path d="M47.9978 158.005C47.9089 173.081 75.4015 156.841 75.4015 156.841C75.4015 156.841 48.1084 139.652 47.9978 158.005Z" stroke="#C5BD9D" stroke-width="2" stroke-miterlimit="10"/>
<path d="M87.702 75.3235C91.4012 74.131 93.4333 70.1655 92.2408 66.4663C91.0483 62.7671 87.0828 60.735 83.3836 61.9275C79.6844 63.12 77.6523 67.0855 78.8448 70.7847C80.0373 74.4839 84.0028 76.516 87.702 75.3235Z" stroke="#C5BD9D" stroke-width="2" stroke-miterlimit="10"/>
<path d="M92.2404 89.4043C95.7341 88.2781 97.6533 84.5329 96.527 81.0392C95.4008 77.5455 91.6556 75.6262 88.1619 76.7525C84.6682 77.8787 82.7489 81.624 83.8752 85.1177C85.0014 88.6114 88.7467 90.5306 92.2404 89.4043Z" stroke="#C5BD9D" stroke-width="2" stroke-miterlimit="10"/>
</g>
</g>
<g style="mix-blend-mode:multiply">
<path d="M148.233 52.8712C148.157 52.8712 148.077 52.853 148.008 52.813C147.79 52.6857 147.713 52.4093 147.841 52.1911C147.859 52.1584 149.652 48.9871 149.419 45.2594C149.154 40.8625 148.088 39.8188 148.077 39.8079C147.899 39.6406 147.881 39.3569 148.041 39.1714C148.204 38.9896 148.477 38.9605 148.67 39.1205C148.808 39.2332 150.034 40.3861 150.328 45.2012C150.576 49.2126 148.706 52.5075 148.63 52.6457C148.543 52.7912 148.39 52.8712 148.233 52.8712ZM153.278 53.5113C153.176 53.5113 153.074 53.4785 152.994 53.4094C152.798 53.2531 152.765 52.9657 152.921 52.7694C152.936 52.7548 154.343 50.9 154.343 45.8558C154.343 40.9462 152.943 39.8515 152.929 39.8406C152.729 39.6951 152.681 39.4151 152.823 39.2114C152.965 39.0078 153.23 38.9569 153.441 39.0878C153.623 39.2114 155.252 40.4443 155.252 45.8558C155.252 51.2674 153.696 53.2603 153.63 53.344C153.54 53.4531 153.409 53.5113 153.278 53.5113ZM147.059 27.2609C146.535 27.2609 145.986 27.3773 145.419 27.6137C143.691 28.3229 143.113 29.523 143.644 31.2832C144.728 34.8691 149.514 38.5459 150.43 38.5459C150.448 38.5459 150.463 38.5459 150.477 38.5459C151.172 38.284 151.663 37.4367 151.863 36.1602C152.267 33.5599 151.296 29.6794 149.215 28.0392C148.553 27.5228 147.833 27.2646 147.059 27.2646V27.2609ZM150.506 39.4405C148.779 39.4405 144.262 35.3855 142.964 32.087C141.989 29.6212 142.738 27.7337 145.069 26.77C146.797 26.0644 148.419 26.2536 149.775 27.3228C152.183 29.2139 153.201 33.4544 152.761 36.2947C152.51 37.9095 151.812 39.0114 150.79 39.3969C150.71 39.426 150.612 39.4405 150.506 39.4405ZM158.707 25.9481C156.962 25.9481 155.707 27.4428 154.907 28.8575C152.874 32.4579 152.678 37.2803 153.714 38.0367C154.271 38.4368 155.202 38.0367 155.711 37.7676C158.515 36.2511 161.948 31.6505 161.802 28.6356C161.744 27.4864 161.184 26.7045 160.093 26.2463C159.602 26.039 159.14 25.9481 158.711 25.9481H158.707ZM154.303 39.1205C153.801 39.1205 153.438 38.9605 153.179 38.7714C151.419 37.4876 152.23 31.756 154.114 28.4102C155.78 25.4607 158.024 24.3952 160.442 25.4062C161.85 25.999 162.635 27.0973 162.708 28.5884C162.872 31.9669 159.235 36.8984 156.143 38.5677C155.391 38.9714 154.783 39.1205 154.303 39.1205ZM152.001 39.9242C146.986 39.9242 142.909 42.7827 142.909 46.2959C142.909 49.809 146.986 52.6639 152.001 52.6639C157.016 52.6639 161.093 49.8054 161.093 46.2959C161.093 42.7864 157.016 39.9242 152.001 39.9242ZM152.001 53.5731C146.488 53.5731 142 50.3072 142 46.2959C142 42.2845 146.488 39.015 152.001 39.015C157.515 39.015 162.002 42.2809 162.002 46.2959C162.002 50.3109 157.518 53.5731 152.001 53.5731ZM175.804 73.9645C175.724 73.9645 175.637 73.9391 175.564 73.8954C175.349 73.7609 175.288 73.4809 175.422 73.2663C175.444 73.2226 178.179 68.793 177.851 63.2869C177.499 57.2426 175.564 55.5806 175.546 55.5624C175.353 55.406 175.32 55.1224 175.477 54.926C175.626 54.7332 175.909 54.6932 176.109 54.8532C176.2 54.926 178.379 56.708 178.761 63.2324C179.099 69.0403 176.309 73.5609 176.189 73.75C176.102 73.8882 175.953 73.9645 175.804 73.9645ZM169.021 73.6118C168.923 73.6118 168.829 73.5827 168.749 73.5172C168.545 73.3681 168.505 73.0844 168.658 72.8844C168.694 72.8335 172.324 67.9711 172.484 63.0578C172.647 58.1773 170.491 55.3297 170.469 55.3006C170.316 55.1042 170.352 54.8169 170.552 54.6641C170.745 54.5077 171.036 54.5441 171.189 54.7441C171.283 54.8678 173.567 57.8609 173.393 63.0869C173.222 68.2912 169.541 73.2227 169.381 73.4299C169.294 73.55 169.16 73.6118 169.021 73.6118ZM168.774 38.8586C168.559 38.8586 168.334 38.8914 168.105 38.9532C164.683 39.8624 165.374 44.412 165.825 46.325C166.876 50.7619 169.574 54.5914 171.043 54.5914C171.094 54.5914 171.149 54.5914 171.196 54.5768C171.389 54.5368 171.72 54.155 172.011 53.213C173.087 49.7326 172.796 42.099 170.414 39.6187C169.927 39.1132 169.389 38.8586 168.774 38.8586ZM171.054 55.5006C168.781 55.5006 165.963 50.8564 164.941 46.5359C163.853 41.9426 164.919 38.8587 167.872 38.0731C169.072 37.7567 170.185 38.0731 171.069 38.9896C173.869 41.9026 173.92 50.1327 172.88 53.4822C172.513 54.6678 172.007 55.3369 171.382 55.4679C171.276 55.4897 171.167 55.5006 171.054 55.5006ZM179.681 37.8222C179.026 37.8222 178.404 38.0222 177.819 38.4186C174.655 40.5789 173.338 47.6633 173.826 51.591C174.007 53.0603 174.44 54.0531 174.982 54.2532C176.579 54.806 180.728 51.1037 182.805 46.5032C183.823 44.2556 185.034 40.2079 181.699 38.3968C180.997 38.0149 180.321 37.8222 179.681 37.8222ZM175.349 55.2205C175.109 55.2205 174.88 55.1842 174.669 55.1042C173.764 54.7732 173.16 53.5949 172.924 51.7001C172.396 47.4487 173.807 40.0515 177.306 37.6694C178.75 36.6875 180.415 36.6657 182.132 37.5967C185.041 39.1787 185.591 42.5609 183.634 46.8778C181.786 50.9691 177.906 55.2205 175.349 55.2205ZM173.033 55.1333C166.77 55.1333 161.668 59.2101 161.668 64.2252C161.668 69.2404 166.77 73.3172 173.033 73.3172C179.295 73.3172 184.398 69.2367 184.398 64.2252C184.398 59.2137 179.299 55.1333 173.033 55.1333ZM173.033 74.2264C166.265 74.2264 160.759 69.7422 160.759 64.2252C160.759 58.7082 166.265 54.2241 173.033 54.2241C179.801 54.2241 185.307 58.7082 185.307 64.2252C185.307 69.7422 179.804 74.2264 173.033 74.2264Z" stroke="#C5BD9D" stroke-width="0.909196" stroke-linecap="round" stroke-linejoin="round"/>
</g>
<defs>
<clipPath id="clip0_119_9551">
<rect width="101.662" height="225.043" fill="white" transform="translate(0.126953 32.144) rotate(-17.8675)"/>
</clipPath>
</defs>
</svg>
