<svg width="192" height="268" viewBox="0 0 192 268" fill="none" xmlns="http://www.w3.org/2000/svg">
<g clip-path="url(#clip0_119_9533)">
<path d="M152.185 78.2156C152.185 78.2156 136.022 101.84 126.975 112.503C117.929 123.166 101.308 134.96 93.1289 158.157C84.9498 181.354 66.2882 249.28 66.2882 249.28" stroke="#C5BD9D" stroke-width="2" stroke-miterlimit="10" stroke-linecap="round"/>
<path d="M84.0566 92.2998C84.0566 92.2998 94.0119 120.559 94.3557 134.528C94.6995 148.496 93.7995 154.221 91.5233 162.784" stroke="#C5BD9D" stroke-width="2" stroke-miterlimit="10"/>
<path d="M127.331 165.377C127.331 165.377 112.987 171.788 103.015 180.81C93.0434 189.832 81.55 197.495 77.1655 213.991" stroke="#C5BD9D" stroke-width="2" stroke-miterlimit="10"/>
<path d="M39.8932 93.88C39.7763 93.8065 39.6639 93.7615 39.6116 93.8901C38.6292 96.3425 37.4108 110.075 43.6516 127.066C49.8208 143.859 70.0498 137.596 74.3601 150.182C78.6677 162.766 86.5544 179.246 87.1987 176.537C88.9865 168.989 86.855 151.286 82.9452 143.662C74.1418 126.502 61.92 135.263 54.8138 118.778C45.4956 97.1671 41.7605 95.0676 39.8932 93.88V93.88Z" stroke="#C5BD9D" stroke-width="2" stroke-miterlimit="10"/>
<path d="M132.951 193.792C133.109 193.688 133.299 193.808 133.285 193.996C133.039 196.838 128.506 210.116 120.2 210.74C111.039 211.428 107.607 207.823 100.371 207.477C93.2376 207.133 77.6197 213.796 77.1784 213.985C77.1712 213.989 77.1684 213.989 77.1734 213.981C77.4438 213.58 87.1913 199.265 97.7907 199.072C108.54 198.873 111.213 201.933 118.392 200.43C124.646 199.121 131.335 194.866 132.954 193.792L132.951 193.792Z" stroke="#C5BD9D" stroke-width="2" stroke-miterlimit="10"/>
<path d="M149.674 143.989C141.147 133.224 127.332 165.374 127.332 165.374C127.332 165.374 158.551 155.193 149.674 143.989Z" stroke="#C5BD9D" stroke-width="2" stroke-miterlimit="10"/>
<path d="M123.123 146.701C113.174 147.091 121.12 166.907 121.12 166.907C121.12 166.907 137.017 146.156 123.123 146.701V146.701Z" stroke="#C5BD9D" stroke-width="2" stroke-miterlimit="10"/>
<path d="M133.025 174.937C134.338 165.684 113.335 174.382 113.335 174.382C113.335 174.382 131.711 184.19 133.025 174.937Z" stroke="#C5BD9D" stroke-width="2" stroke-miterlimit="10"/>
<path d="M185.447 34.7447C200.125 44.8067 152.05 78.7105 152.05 78.7105C152.05 78.7105 166.916 22.0391 185.447 34.7447V34.7447Z" stroke="#C5BD9D" stroke-width="2" stroke-miterlimit="10"/>
<path d="M143.961 50.0157C127.492 50.6075 141.232 91.1943 141.232 91.1943C141.232 91.1943 156.429 49.5672 143.961 50.0157V50.0157Z" stroke="#C5BD9D" stroke-width="2" stroke-miterlimit="10"/>
<path d="M165.009 89.113C159.715 79.9868 134.217 103.565 134.217 103.565C134.217 103.565 172.525 102.071 165.009 89.113Z" stroke="#C5BD9D" stroke-width="2" stroke-miterlimit="10"/>
<path d="M125.931 104.658C129.048 105.486 132.246 103.631 133.075 100.514C133.903 97.3973 132.048 94.1988 128.931 93.3703C125.814 92.5418 122.615 94.397 121.787 97.514C120.958 100.631 122.814 103.829 125.931 104.658Z" stroke="#C5BD9D" stroke-width="2" stroke-miterlimit="10"/>
<path d="M131.03 123.511C134.762 124.503 138.591 122.282 139.583 118.55C140.575 114.818 138.354 110.989 134.622 109.997C130.89 109.005 127.061 111.226 126.069 114.958C125.077 118.69 127.298 122.519 131.03 123.511Z" stroke="#C5BD9D" stroke-width="2" stroke-miterlimit="10"/>
<path d="M104.741 79.2693C92.5228 75.2637 92.5624 119.452 92.5624 119.452C92.5624 119.452 116.959 83.2749 104.741 79.2693Z" stroke="#C5BD9D" stroke-width="2" stroke-miterlimit="10"/>
<path d="M72.225 110.344C65.7981 117.414 92.7043 128.771 93.1867 128.975C93.1952 128.977 93.1944 128.98 93.1875 128.972C92.9642 128.5 80.1562 101.62 72.2222 110.344L72.225 110.344Z" stroke="#C5BD9D" stroke-width="2" stroke-miterlimit="10"/>
<path d="M80.0927 92.4739C83.2097 93.3024 86.4082 91.4472 87.2367 88.3302C88.0653 85.2132 86.2101 82.0147 83.0931 81.1862C79.9761 80.3577 76.7776 82.2129 75.9491 85.3299C75.1205 88.4469 76.9757 91.6454 80.0927 92.4739Z" stroke="#C5BD9D" stroke-width="2" stroke-miterlimit="10"/>
</g>
<defs>
<clipPath id="clip0_119_9533">
<rect width="133" height="241.542" fill="white" transform="translate(63.0254) rotate(14.8853)"/>
</clipPath>
</defs>
</svg>
