<svg width="202" height="268" viewBox="0 0 202 268" fill="none" xmlns="http://www.w3.org/2000/svg">
<g style="mix-blend-mode:multiply">
<g clip-path="url(#clip0_119_9568)">
<path d="M155.688 78.7451C155.688 78.7451 157.987 109.19 137.625 125.494C117.263 141.797 113.251 139.296 98.8565 160.272C84.4625 181.249 69.5942 206.679 59.5746 244.068" stroke="#B1B6D2" stroke-width="2.80076" stroke-miterlimit="10" stroke-linecap="round"/>
<path d="M80.668 75.9274C80.668 75.9274 92.5334 104.234 90.856 131.518C89.1786 158.801 78.5346 194.105 78.5346 194.105" stroke="#B1B6D2" stroke-width="2.80076" stroke-miterlimit="10"/>
<path d="M120.974 166.241C120.974 166.241 76.533 199.515 65.7163 223.17" stroke="#B1B6D2" stroke-width="2.80076" stroke-miterlimit="10" stroke-linecap="round"/>
<path d="M117.558 208.725C117.823 208.488 118.234 208.7 118.207 209.058C117.835 213.482 113.243 229.469 101.95 229.787C89.0599 230.148 80.9205 229.39 65.1424 234.862C56.9054 237.719 70.8145 223.988 82.047 222.631C96.7975 220.851 98.3989 224.046 104.228 221.302C109.819 218.668 115.732 210.358 117.563 208.722L117.558 208.725Z" stroke="#B1B6D2" stroke-width="2.80076" stroke-miterlimit="10"/>
<path d="M33.5093 121.232C33.4541 120.913 33.057 120.833 32.8848 121.107C30.3694 125.127 19.5403 144.598 36.3054 157.886C55.0822 172.767 54.0484 200.63 64.8285 224.469C67.1573 229.62 71.013 178.223 64.6387 168.138C58.5205 158.46 48.4625 157.564 42.6494 147.5C36.5229 136.888 34.0877 124.567 33.5119 121.237L33.5093 121.232Z" stroke="#B1B6D2" stroke-width="2.80076" stroke-miterlimit="10"/>
<path d="M173.511 32.0422C151.271 22.5329 155.752 80.0823 155.752 80.0823C155.752 80.0823 192.617 40.2134 173.511 32.0422V32.0422Z" stroke="#B1B6D2" stroke-width="2.80076" stroke-miterlimit="10"/>
<path d="M146.332 146.833C156.587 157.985 131.01 163.879 122.823 165.44C121.793 165.635 120.97 164.589 121.429 163.643C124.843 156.584 136.167 135.778 146.332 146.833V146.833Z" stroke="#B1B6D2" stroke-width="2.80076" stroke-miterlimit="10"/>
<path d="M137.879 178.387C140.084 166.299 117.152 172.472 110.403 175.54C109.588 175.911 109.481 177.02 110.211 177.535C115.892 181.561 135.056 193.848 137.879 178.387V178.387Z" stroke="#B1B6D2" stroke-width="2.80076" stroke-miterlimit="10"/>
<path d="M136.614 60.2313C155.379 56.746 150.258 107.115 150.258 107.115C150.258 107.115 117.854 63.714 136.614 60.2313V60.2313Z" stroke="#B1B6D2" stroke-width="2.80076" stroke-miterlimit="10"/>
<path d="M182.117 94.3755C189.014 108.078 145.466 117.479 145.466 117.479C145.466 117.479 175.221 80.6734 182.117 94.3755V94.3755Z" stroke="#B1B6D2" stroke-width="2.80076" stroke-miterlimit="10"/>
<path d="M80.8249 38.5623C99.7788 36.7407 81.7713 78.7681 81.7713 78.7681C81.7713 78.7681 61.87 40.3874 80.8249 38.5623V38.5623Z" stroke="#B1B6D2" stroke-width="2.80076" stroke-miterlimit="10"/>
<path d="M111.841 66.5838C125.298 75.9193 97.1401 95.4215 89.3474 100.481C88.6291 100.947 87.7084 100.308 87.8981 99.4729C89.9236 90.41 98.3842 57.2484 111.841 66.5838V66.5838Z" stroke="#B1B6D2" stroke-width="2.80076" stroke-miterlimit="10"/>
<path d="M62.279 85.8472C53.6103 94.332 84.8383 118.994 90.3054 123.194C90.5298 123.365 90.8331 123.142 90.7233 122.884C87.9539 116.325 70.9776 77.3362 62.2825 85.8482L62.279 85.8472Z" stroke="#B1B6D2" stroke-width="2.80076" stroke-miterlimit="10"/>
<path d="M113.033 168.469C115.926 169.244 118.9 167.528 119.675 164.634C120.451 161.741 118.734 158.767 115.84 157.991C112.947 157.216 109.973 158.933 109.198 161.826C108.422 164.72 110.139 167.694 113.033 168.469Z" stroke="#B1B6D2" stroke-width="2.80076" stroke-miterlimit="10"/>
<path d="M132.234 124.224C135.127 124.999 138.101 123.282 138.876 120.389C139.652 117.496 137.935 114.522 135.042 113.746C132.148 112.971 129.174 114.688 128.399 117.581C127.623 120.474 129.34 123.449 132.234 124.224Z" stroke="#B1B6D2" stroke-width="2.80076" stroke-miterlimit="10"/>
<path d="M80.9863 144.896C84.6264 145.871 88.3682 143.711 89.3437 140.071C90.3192 136.431 88.1591 132.689 84.5189 131.714C80.8787 130.738 77.1369 132.898 76.1614 136.539C75.1859 140.179 77.3461 143.92 80.9863 144.896Z" stroke="#B1B6D2" stroke-width="2.80076" stroke-miterlimit="10"/>
<path d="M94.9156 116.662C98.1951 117.541 101.566 115.595 102.445 112.315C103.324 109.036 101.378 105.665 98.0982 104.786C94.8187 103.907 91.4477 105.853 90.5689 109.133C89.69 112.412 91.6361 115.783 94.9156 116.662Z" stroke="#B1B6D2" stroke-width="2.80076" stroke-miterlimit="10"/>
</g>
</g>
<defs>
<clipPath id="clip0_119_9568">
<rect width="144.319" height="238.121" fill="white" transform="translate(61.6367) rotate(15.0018)"/>
</clipPath>
</defs>
</svg>
