<svg width="194" height="260" viewBox="0 0 194 260" fill="none" xmlns="http://www.w3.org/2000/svg">
<g style="mix-blend-mode:multiply">
<g clip-path="url(#clip0_119_9587)">
<path d="M107.847 37.2839C107.847 37.2839 92.7428 101.969 106.194 150.413C119.646 198.857 131.026 239.014 131.026 239.014" stroke="#B1B6D2" stroke-opacity="0.5" stroke-width="2.50473" stroke-miterlimit="10" stroke-linecap="round"/>
<path d="M126.321 220.802C126.321 220.802 110.978 179.51 89.1957 141.883C67.4132 104.255 42.9102 87.8367 42.9102 87.8367" stroke="#B1B6D2" stroke-opacity="0.5" stroke-width="2.50473" stroke-miterlimit="10"/>
<path d="M137.297 118.83C137.297 118.83 120.977 139.417 122.834 169.637C124.692 199.857 127.547 226.01 127.547 226.01" stroke="#B1B6D2" stroke-opacity="0.5" stroke-width="2.50473" stroke-miterlimit="10"/>
<path d="M36.79 140.879C36.0146 139.965 34.5327 140.658 34.7344 141.84C36.4468 151.874 42.9062 176.807 65.3177 183.217C93.5701 191.296 114.143 205.598 124.88 221.256C133.372 233.644 112.473 186.089 91.1324 174.982C69.7919 163.875 65.4778 167.558 56.8802 160.412C46.749 151.994 40.1411 144.824 36.79 140.879V140.879Z" stroke="#B1B6D2" stroke-opacity="0.5" stroke-width="2.50473" stroke-miterlimit="10"/>
<path d="M162.451 167.45C162.515 167.21 162.82 167.165 162.954 167.375C164.724 170.166 172.186 183.472 162.127 195.489C151.458 208.234 146.62 204.484 139.992 210.889C131.596 219.003 129.266 231.047 129.381 232.486C129.496 233.924 121.97 214.059 132.292 203.572C142.615 193.085 145.166 199.957 152.839 188.128C159.373 178.059 161.857 169.709 162.451 167.45V167.45Z" stroke="#B1B6D2" stroke-opacity="0.5" stroke-width="2.50473" stroke-miterlimit="10"/>
<path d="M150.816 95.2802C138.13 86.1968 135.427 111.934 136.353 119.128C137.28 126.322 163.5 104.365 150.816 95.2802V95.2802Z" stroke="#B1B6D2" stroke-opacity="0.5" stroke-width="2.50473" stroke-miterlimit="10"/>
<path d="M120.312 101.79C107.175 105.933 125.429 133.628 128.924 131.287C134.355 127.647 133.448 97.647 120.312 101.79V101.79Z" stroke="#B1B6D2" stroke-opacity="0.5" stroke-width="2.50473" stroke-miterlimit="10"/>
<path d="M150.245 134.243C154.397 140.991 147.337 149.054 139.45 151.958C131.563 154.862 124.862 162.806 123.026 167.276C122.066 169.615 125.562 134.134 138.916 129.923C138.916 129.923 146.094 127.495 150.245 134.243V134.243Z" stroke="#B1B6D2" stroke-opacity="0.5" stroke-width="2.50473" stroke-miterlimit="10"/>
<path d="M76.6055 16.7181C67.2957 22.1291 95.1451 64.4033 102.933 57.4201C110.721 50.4369 85.9152 11.3071 76.6055 16.7181Z" stroke="#B1B6D2" stroke-opacity="0.5" stroke-width="2.50473" stroke-miterlimit="10"/>
<path d="M77.1396 48.4207C67.5073 55.0595 97.6548 96.2412 101.078 88.1563C104.501 80.0715 86.772 41.7818 77.1396 48.4207V48.4207Z" stroke="#B1B6D2" stroke-opacity="0.5" stroke-width="2.50473" stroke-miterlimit="10"/>
<path d="M119.801 52.1809C131.893 60.8712 123.654 70.7396 116.349 76.083C109.044 81.4263 103.477 85.0634 100.859 90.0936C98.2404 95.1237 107.71 43.4906 119.801 52.1809Z" stroke="#B1B6D2" stroke-opacity="0.5" stroke-width="2.50473" stroke-miterlimit="10"/>
<path d="M42.1253 112.969C38.6754 121.931 52.23 129.847 60.6117 130.159C68.9933 130.471 78.7413 130.072 84.6739 135.429C90.6066 140.786 68.823 115.679 60.9074 112.025C52.0431 107.931 43.7613 108.723 42.1262 112.972L42.1253 112.969Z" stroke="#B1B6D2" stroke-opacity="0.5" stroke-width="2.50473" stroke-miterlimit="10"/>
<path d="M82.1128 94.7989C75.8392 94.9091 69.8315 111.415 75.733 119.886C81.6345 128.357 83.9331 131.307 83.5491 120.021C83.1651 108.736 89.9469 94.6644 82.1128 94.7989V94.7989Z" stroke="#B1B6D2" stroke-opacity="0.5" stroke-width="2.50473" stroke-miterlimit="10"/>
<path d="M38.183 91.5188C42.6405 90.1131 45.1144 85.36 43.7086 80.9026C42.3029 76.4452 37.5498 73.9713 33.0924 75.377C28.6349 76.7828 26.1611 81.5358 27.5668 85.9933C28.9726 90.4507 33.7256 92.9246 38.183 91.5188Z" stroke="#B1B6D2" stroke-opacity="0.5" stroke-width="2.50473" stroke-miterlimit="10"/>
<path d="M60.3458 96.7198C63.9587 95.5803 65.9639 91.7278 64.8245 88.1148C63.6851 84.5019 59.8325 82.4967 56.2196 83.6361C52.6066 84.7755 50.6014 88.6281 51.7408 92.241C52.8803 95.854 56.7328 97.8592 60.3458 96.7198Z" stroke="#B1B6D2" stroke-opacity="0.5" stroke-width="2.50473" stroke-miterlimit="10"/>
<path d="M111.144 35.8991C114.994 34.685 117.13 30.5801 115.916 26.7305C114.702 22.8809 110.597 20.7444 106.748 21.9584C102.898 23.1725 100.762 27.2774 101.976 31.127C103.19 34.9766 107.295 37.1131 111.144 35.8991Z" stroke="#B1B6D2" stroke-opacity="0.5" stroke-width="2.50473" stroke-miterlimit="10"/>
</g>
</g>
<defs>
<clipPath id="clip0_119_9587">
<rect width="130.234" height="231.541" fill="white" transform="translate(0 39.1704) rotate(-17.5038)"/>
</clipPath>
</defs>
</svg>
